REM DIRINDEX 1\3,1\2\4,1\2\5,1\2\6
REM DIRNAME cjc137,folder01,folder02,folder03,folder04,folder05
TITLE ""
FILE "079.mp3" MP3
  TRACK 01 AUDIO
    TITLE "4:cjc137_3242"
    INDEX 01 00:00:00
  TRACK 02 AUDIO
    TITLE "0:"
    INDEX 01 00:01:01
  TRACK 03 AUDIO
    TITLE "6:cjc137_3243"
    INDEX 01 00:01:15
  TRACK 04 AUDIO
    TITLE "0:"
    INDEX 01 00:02:08
  TRACK 05 AUDIO
    TITLE "5:cjc137_3244"
    INDEX 01 00:02:12
  TRACK 06 AUDIO
    TITLE "0:"
    INDEX 01 00:03:15
  TRACK 07 AUDIO
    TITLE "4:cjc137_3245"
    INDEX 01 00:04:29
  TRACK 08 AUDIO
    TITLE "0:"
    INDEX 01 00:05:52
  TRACK 09 AUDIO
    TITLE "6:cjc137_3246"
    INDEX 01 00:05:57
  TRACK 10 AUDIO
    TITLE "0:"
    INDEX 01 00:07:09
  TRACK 11 AUDIO
    TITLE "5:cjc137_3247"
    INDEX 01 00:07:15
  TRACK 12 AUDIO
    TITLE "0:"
    INDEX 01 00:08:40
  TRACK 13 AUDIO
    TITLE "4:cjc137_3248"
    INDEX 01 00:09:47
  TRACK 14 AUDIO
    TITLE "0:"
    INDEX 01 00:10:53
  TRACK 15 AUDIO
    TITLE "6:cjc137_3249"
    INDEX 01 00:10:61
  TRACK 16 AUDIO
    TITLE "0:"
    INDEX 01 00:11:62
  TRACK 17 AUDIO
    TITLE "5:cjc137_3250"
    INDEX 01 00:11:66
  TRACK 18 AUDIO
    TITLE "0:"
    INDEX 01 00:13:00
  TRACK 19 AUDIO
    TITLE "4:cjc137_3251"
    INDEX 01 00:14:07
  TRACK 20 AUDIO
    TITLE "0:"
    INDEX 01 00:15:13
  TRACK 21 AUDIO
    TITLE "6:cjc137_3252"
    INDEX 01 00:15:21
  TRACK 22 AUDIO
    TITLE "0:"
    INDEX 01 00:16:36
  TRACK 23 AUDIO
    TITLE "5:cjc137_3253"
    INDEX 01 00:16:44
  TRACK 24 AUDIO
    TITLE "0:"
    INDEX 01 00:17:49
  TRACK 25 AUDIO
    TITLE "4:cjc137_3254"
    INDEX 01 00:18:62
  TRACK 26 AUDIO
    TITLE "0:"
    INDEX 01 00:19:60
  TRACK 27 AUDIO
    TITLE "6:cjc137_3255"
    INDEX 01 00:19:67
  TRACK 28 AUDIO
    TITLE "0:"
    INDEX 01 00:20:59
  TRACK 29 AUDIO
    TITLE "5:cjc137_3256"
    INDEX 01 00:20:67
  TRACK 30 AUDIO
    TITLE "0:"
    INDEX 01 00:21:68
  TRACK 31 AUDIO
    TITLE "4:cjc137_3257"
    INDEX 01 00:23:03
  TRACK 32 AUDIO
    TITLE "0:"
    INDEX 01 00:24:18
  TRACK 33 AUDIO
    TITLE "6:cjc137_3258"
    INDEX 01 00:24:24
  TRACK 34 AUDIO
    TITLE "0:"
    INDEX 01 00:25:33
  TRACK 35 AUDIO
    TITLE "5:cjc137_3259"
    INDEX 01 00:25:41
  TRACK 36 AUDIO
    TITLE "0:"
    INDEX 01 00:26:56
  TRACK 37 AUDIO
    TITLE "4:cjc137_3260"
    INDEX 01 00:27:63
  TRACK 38 AUDIO
    TITLE "0:"
    INDEX 01 00:28:72
  TRACK 39 AUDIO
    TITLE "6:cjc137_3261"
    INDEX 01 00:29:09
  TRACK 40 AUDIO
    TITLE "0:"
    INDEX 01 00:30:63
  TRACK 41 AUDIO
    TITLE "5:cjc137_3262"
    INDEX 01 00:30:67
  TRACK 42 AUDIO
    TITLE "0:"
    INDEX 01 00:32:01
  TRACK 43 AUDIO
    TITLE "4:cjc137_3263"
    INDEX 01 00:33:13
  TRACK 44 AUDIO
    TITLE "0:"
    INDEX 01 00:34:26
  TRACK 45 AUDIO
    TITLE "6:cjc137_3264"
    INDEX 01 00:34:32
  TRACK 46 AUDIO
    TITLE "0:"
    INDEX 01 00:35:23
  TRACK 47 AUDIO
    TITLE "5:cjc137_3265"
    INDEX 01 00:35:27
  TRACK 48 AUDIO
    TITLE "0:"
    INDEX 01 00:36:42
  TRACK 49 AUDIO
    TITLE "4:cjc137_3266"
    INDEX 01 00:37:50
  TRACK 50 AUDIO
    TITLE "0:"
    INDEX 01 00:38:59
  TRACK 51 AUDIO
    TITLE "6:cjc137_3267"
    INDEX 01 00:38:65
  TRACK 52 AUDIO
    TITLE "0:"
    INDEX 01 00:39:74
  TRACK 53 AUDIO
    TITLE "5:cjc137_3268"
    INDEX 01 00:40:09
  TRACK 54 AUDIO
    TITLE "0:"
    INDEX 01 00:41:18
  TRACK 55 AUDIO
    TITLE "4:cjc137_3269"
    INDEX 01 00:42:25
  TRACK 56 AUDIO
    TITLE "0:"
    INDEX 01 00:43:46
  TRACK 57 AUDIO
    TITLE "6:cjc137_3270"
    INDEX 01 00:43:52
  TRACK 58 AUDIO
    TITLE "0:"
    INDEX 01 00:44:73
  TRACK 59 AUDIO
    TITLE "5:cjc137_3271"
    INDEX 01 00:45:02
  TRACK 60 AUDIO
    TITLE "0:"
    INDEX 01 00:46:25
  TRACK 61 AUDIO
    TITLE "4:cjc137_3272"
    INDEX 01 00:47:30
  TRACK 62 AUDIO
    TITLE "0:"
    INDEX 01 00:48:51
  TRACK 63 AUDIO
    TITLE "6:cjc137_3273"
    INDEX 01 00:48:59
  TRACK 64 AUDIO
    TITLE "0:"
    INDEX 01 00:49:57
  TRACK 65 AUDIO
    TITLE "5:cjc137_3274"
    INDEX 01 00:49:67
  TRACK 66 AUDIO
    TITLE "0:"
    INDEX 01 00:51:09
  TRACK 67 AUDIO
    TITLE "4:cjc137_3275"
    INDEX 01 00:52:20
  TRACK 68 AUDIO
    TITLE "0:"
    INDEX 01 00:53:37
  TRACK 69 AUDIO
    TITLE "6:cjc137_3276"
    INDEX 01 00:53:43
  TRACK 70 AUDIO
    TITLE "0:"
    INDEX 01 00:54:46
  TRACK 71 AUDIO
    TITLE "5:cjc137_3277"
    INDEX 01 00:54:52
  TRACK 72 AUDIO
    TITLE "0:"
    INDEX 01 00:55:71
